<svg data-v-423bf9ae="" xmlns="http://www.w3.org/2000/svg" viewBox="0 0 594.7727590865028 163" class="iconAbove"><!----><!----><!----><g data-v-423bf9ae="" id="a70134df-37ab-42f0-8dac-2c09e5db4676" fill="#ffffff" transform="matrix(5.681818469168412,0,0,5.681818469168412,-4.147731230033173,84.704544128301)"><path d="M5.70 8.55L5.70 10.26L7.66 10.26C7.41 11.49 6.62 12.15 5.50 12.15C4.13 12.15 3.04 11.10 3.04 8.68C3.04 6.54 4.12 5.35 5.53 5.35C6.71 5.35 7.39 5.95 7.62 7.07L7.64 7.21L9.83 7.21L9.81 7.07C9.62 5.17 8.25 3.72 5.56 3.72C2.88 3.72 0.73 5.56 0.73 8.81C0.73 11.96 2.48 13.78 5.11 13.78C6.16 13.78 6.86 13.57 7.41 13.06L7.84 12.05L8.01 13.58L9.74 13.58L9.74 8.55ZM15.40 5.92C14.97 5.92 14.42 6.12 14.04 6.51L13.48 7.55L13.48 6.12L11.28 6.12L11.28 13.58L13.48 13.58L13.48 10.46C13.48 8.34 14.22 7.64 15.96 7.76L15.96 5.98C15.79 5.95 15.64 5.92 15.40 5.92ZM20.29 5.92C17.81 5.92 16.35 7.52 16.35 9.84C16.35 12.17 17.81 13.78 20.29 13.78C22.75 13.78 24.22 12.17 24.22 9.84C24.22 7.52 22.75 5.92 20.29 5.92ZM20.29 12.26C19.24 12.26 18.61 11.40 18.61 9.84C18.61 8.29 19.24 7.43 20.29 7.43C21.32 7.43 21.95 8.29 21.95 9.84C21.95 11.40 21.32 12.26 20.29 12.26ZM36.50 6.12L34.13 6.12L33.00 11.76L31.86 6.16L29.25 6.16L28.17 11.75L27.01 6.12L24.57 6.12L26.94 13.58L29.41 13.58L30.55 8.16L31.67 13.58L34.13 13.58ZM39.89 7.57L41.47 7.57L41.47 6.17L39.89 6.17L39.89 4.30L37.69 4.30L37.69 6.17L36.55 6.17L36.55 7.57L37.69 7.57L37.69 11.00C37.69 11.42 37.69 11.76 37.72 12.14C37.80 13.23 38.33 13.76 39.97 13.76C40.45 13.76 40.88 13.72 41.33 13.65L41.33 12.25C40.21 12.32 39.96 12.15 39.90 11.41C39.89 11.21 39.89 10.96 39.89 10.71ZM49.74 7.98C49.57 6.68 48.66 5.92 47.10 5.92C46.40 5.92 45.86 6.06 45.36 6.40L44.74 7.29L44.74 3.22L42.55 3.22L42.55 13.58L44.74 13.58L44.74 10.12C44.74 8.22 45.39 7.45 46.26 7.43C47.11 7.43 47.53 7.91 47.59 8.67C47.61 9.04 47.61 9.42 47.61 9.70L47.61 13.58L49.81 13.58L49.81 9.37C49.81 8.76 49.80 8.36 49.74 7.98ZM61.03 3.92L58.83 3.92L58.83 9.80C58.83 10.15 58.83 10.46 58.80 10.78C58.73 11.63 58.32 12.15 57.51 12.15C56.69 12.15 56.15 11.72 56.07 10.44L56.04 9.98L53.86 9.98L53.87 10.44C53.93 12.47 55.01 13.78 57.41 13.78C59.81 13.78 60.89 12.59 60.98 10.91C61.03 10.25 61.03 9.94 61.03 9.52ZM66.07 5.92C63.59 5.92 62.13 7.52 62.13 9.84C62.13 12.17 63.59 13.78 66.07 13.78C68.53 13.78 70 12.17 70 9.84C70 7.52 68.53 5.92 66.07 5.92ZM66.07 12.26C65.02 12.26 64.39 11.40 64.39 9.84C64.39 8.29 65.02 7.43 66.07 7.43C67.10 7.43 67.73 8.29 67.73 9.84C67.73 11.40 67.10 12.26 66.07 12.26ZM78.30 6.12L76.12 6.12L76.12 10.11C76.12 11.48 75.53 12.25 74.63 12.25C73.78 12.25 73.39 11.80 73.29 11.05C73.25 10.67 73.23 10.26 73.23 10.02L73.23 6.12L71.05 6.12L71.05 10.50C71.05 11.10 71.06 11.51 71.12 11.89C71.29 12.91 72.21 13.78 73.75 13.78C74.45 13.78 74.98 13.64 75.49 13.30L76.12 12.31L76.12 13.58L78.30 13.58ZM84.08 5.92C83.65 5.92 83.10 6.12 82.73 6.51L82.17 7.55L82.17 6.12L79.97 6.12L79.97 13.58L82.17 13.58L82.17 10.46C82.17 8.34 82.91 7.64 84.64 7.76L84.64 5.98C84.48 5.95 84.32 5.92 84.08 5.92ZM92.74 7.98C92.57 6.68 91.66 5.92 90.09 5.92C89.39 5.92 88.86 6.06 88.35 6.40L87.74 7.29L87.74 6.12L85.54 6.12L85.54 13.58L87.74 13.58L87.74 10.12C87.74 8.22 88.38 7.43 89.25 7.43C90.10 7.43 90.52 7.91 90.58 8.67C90.61 9.04 90.61 9.42 90.61 9.70L90.61 13.58L92.81 13.58L92.81 9.37C92.81 8.76 92.79 8.36 92.74 7.98ZM98.73 13.58L100.87 13.58C100.76 12.75 100.73 12.25 100.73 11.69L100.73 9.42C100.73 8.99 100.72 8.57 100.69 8.22C100.58 6.89 99.78 5.92 97.57 5.92C95.75 5.92 94.30 6.89 94.26 8.60L96.36 8.60C96.42 7.85 96.80 7.43 97.48 7.43C98.14 7.43 98.48 7.80 98.52 8.25C98.55 8.50 98.55 8.69 98.55 8.89L98.55 9.02L98.07 9.02C95.44 9.02 94.00 9.97 94.00 11.59C94.00 13.01 95.13 13.78 96.39 13.78C97.08 13.78 97.71 13.62 98.24 13.29L98.57 12.49ZM97.26 12.26C96.66 12.26 96.25 11.97 96.25 11.41C96.25 10.54 97.19 10.21 98.55 10.32L98.55 10.86C98.55 11.79 97.92 12.26 97.26 12.26ZM104.54 3.29L102.34 3.29L102.34 11.07C102.34 11.59 102.34 11.96 102.37 12.32C102.42 13.30 103.04 13.71 104.09 13.71C104.58 13.71 104.99 13.68 105.41 13.64L105.41 12.14C104.75 12.17 104.59 12.05 104.55 11.72C104.54 11.52 104.54 11.35 104.54 11.03Z"></path></g><!----><g data-v-423bf9ae="" id="63a22654-1006-417c-842e-90cda21c871a" transform="matrix(1,0,0,1,248.302001953125,-4)" stroke="none" fill="#ffffff"><path d="M10.069 31.5h14.276c2.742 0 4.966-2.258 4.966-5s-2.224-5-4.966-5H10.069c-2.742 0-4.965 2.258-4.965 5s2.223 5 4.965 5zM10.069 54.5h14.276c2.742 0 4.966-2.258 4.966-5s-2.224-5-4.966-5H10.069c-2.742 0-4.965 2.258-4.965 5s2.223 5 4.965 5z"></path><path d="M88.276 4.5H20c-3.428 0-6.5 2.502-6.5 5.931V17.5h10.845c5.134 0 9.311 3.866 9.311 9s-4.176 9-9.311 9H13.5v5h10.845c5.134 0 9.311 3.866 9.311 9s-4.176 9-9.311 9H13.5v4h10.845c5.134 0 9.311 4.365 9.311 9.5s-4.176 9.5-9.311 9.5H13.5v6.518c0 3.428 3.072 6.482 6.5 6.482h68.276c3.429 0 6.224-3.055 6.224-6.482V10.431c0-3.429-2.795-5.931-6.224-5.931z"></path><path d="M29.311 72.5c0-2.742-2.224-5-4.966-5H10.069c-2.742 0-4.965 2.258-4.965 5s2.223 5 4.965 5h14.276c2.742 0 4.966-2.258 4.966-5z"></path></g><!----></svg>