<svg data-v-423bf9ae="" xmlns="http://www.w3.org/2000/svg" viewBox="0 0 775 90" class="iconLeft"><!----><!----><!----><g data-v-423bf9ae="" id="302170e0-e101-4dcc-ad20-5b220931afb8" fill="white" transform="matrix(6.036217558641619,0,0,6.036217558641619,106.92113572012192,-4.4366195194306925)"><path d="M5.19 9.81L5.19 7.81L9.48 7.81L9.48 13.02L7.32 13.02L7.21 11.97Q6.50 13.16 4.70 13.16L4.70 13.16Q3.49 13.16 2.51 12.62Q1.54 12.08 0.97 11.02Q0.41 9.95 0.41 8.43L0.41 8.43Q0.41 6.16 1.67 4.90Q2.94 3.64 5.19 3.64L5.19 3.64Q6.92 3.64 7.93 4.23Q8.95 4.82 9.51 6.17L9.51 6.17L6.47 7.27Q6.29 6.09 5.31 6.09L5.31 6.09Q4.49 6.09 4.12 6.64Q3.74 7.20 3.74 8.40L3.74 8.40Q3.74 9.69 4.14 10.24Q4.55 10.79 5.42 10.79L5.42 10.79Q6.03 10.79 6.39 10.55Q6.75 10.30 6.75 9.83L6.75 9.83L6.75 9.81L5.19 9.81ZM15.68 5.88Q16.17 5.88 16.41 6.05L16.41 6.05L16.14 8.68Q16.02 8.58 15.78 8.52Q15.54 8.46 15.26 8.46L15.26 8.46Q14.62 8.46 14.25 8.76Q13.87 9.07 13.87 9.66L13.87 9.66L13.87 13.02L10.65 13.02L10.65 6.02L13.55 6.02L13.62 7.77Q14.13 5.88 15.68 5.88L15.68 5.88ZM20.51 5.88Q22.37 5.88 23.39 6.83Q24.42 7.78 24.42 9.52L24.42 9.52Q24.42 11.26 23.39 12.21Q22.37 13.16 20.51 13.16L20.51 13.16Q18.65 13.16 17.63 12.21Q16.60 11.26 16.60 9.52L16.60 9.52Q16.60 7.78 17.63 6.83Q18.65 5.88 20.51 5.88L20.51 5.88ZM20.51 8.05Q20.23 8.05 20.09 8.18Q19.95 8.30 19.89 8.61Q19.84 8.92 19.84 9.52L19.84 9.52Q19.84 10.12 19.89 10.43Q19.95 10.74 20.09 10.86Q20.23 10.99 20.51 10.99L20.51 10.99Q20.79 10.99 20.93 10.86Q21.07 10.74 21.13 10.43Q21.18 10.12 21.18 9.52L21.18 9.52Q21.18 8.92 21.13 8.61Q21.07 8.30 20.93 8.18Q20.79 8.05 20.51 8.05L20.51 8.05ZM37.90 6.02L35.99 13.02L31.99 13.02L31.49 10.86L31.21 9.16L31.15 9.16L30.88 10.85L30.37 13.02L26.36 13.02L24.46 6.02L27.79 6.02L28.35 9.37L28.56 10.95L28.62 10.95L28.90 9.35L29.60 6.02L32.76 6.02L33.47 9.39L33.74 10.95L33.80 10.95L34.01 9.38L34.57 6.02L37.90 6.02ZM43.81 10.86L43.95 12.68Q43.60 12.89 43.00 13.03Q42.41 13.16 41.86 13.16L41.86 13.16Q40.35 13.16 39.61 12.58Q38.86 12.00 38.86 10.67L38.86 10.67L38.86 8.19L37.79 8.19L37.79 6.02L38.86 6.02L38.86 4.54L42.08 3.64L42.08 6.02L43.85 6.02L43.85 8.19L42.08 8.19L42.08 10.16Q42.08 10.64 42.29 10.84Q42.49 11.05 42.92 11.05L42.92 11.05Q43.44 11.05 43.81 10.86L43.81 10.86ZM50.23 5.88Q51.27 5.88 51.85 6.50Q52.43 7.11 52.43 8.23L52.43 8.23L52.43 13.02L49.21 13.02L49.21 9.07Q49.21 8.61 49.10 8.43Q48.99 8.25 48.72 8.25L48.72 8.25Q48.37 8.25 48.21 8.51Q48.05 8.78 48.05 9.35L48.05 9.35L48.05 13.02L44.83 13.02L44.83 3.22L48.05 3.22L48.05 7.45Q48.33 6.68 48.89 6.28Q49.45 5.88 50.23 5.88L50.23 5.88ZM65.03 3.78L65.03 9.21Q65.03 11.10 63.88 12.13Q62.73 13.16 60.63 13.16L60.63 13.16Q58.62 13.16 57.63 12.29Q56.64 11.42 56.64 9.91L56.64 9.91Q56.64 9.44 56.73 8.96L56.73 8.96L59.99 8.41Q59.92 8.89 59.92 9.39L59.92 9.39Q59.92 10.11 60.15 10.41Q60.38 10.71 60.84 10.71L60.84 10.71Q61.32 10.71 61.54 10.30Q61.77 9.88 61.77 8.97L61.77 8.97L61.77 3.78L65.03 3.78ZM69.71 5.88Q71.57 5.88 72.59 6.83Q73.61 7.78 73.61 9.52L73.61 9.52Q73.61 11.26 72.59 12.21Q71.57 13.16 69.71 13.16L69.71 13.16Q67.84 13.16 66.82 12.21Q65.80 11.26 65.80 9.52L65.80 9.52Q65.80 7.78 66.82 6.83Q67.84 5.88 69.71 5.88L69.71 5.88ZM69.71 8.05Q69.43 8.05 69.29 8.18Q69.15 8.30 69.09 8.61Q69.03 8.92 69.03 9.52L69.03 9.52Q69.03 10.12 69.09 10.43Q69.15 10.74 69.29 10.86Q69.43 10.99 69.71 10.99L69.71 10.99Q69.99 10.99 70.13 10.86Q70.27 10.74 70.32 10.43Q70.38 10.12 70.38 9.52L70.38 9.52Q70.38 8.92 70.32 8.61Q70.27 8.30 70.13 8.18Q69.99 8.05 69.71 8.05L69.71 8.05ZM78.81 6.02L82.03 6.02L82.03 13.02L79.13 13.02L79.06 11.54Q78.75 12.35 78.16 12.75Q77.56 13.16 76.69 13.16L76.69 13.16Q75.57 13.16 75.00 12.58Q74.42 12.00 74.42 10.75L74.42 10.75L74.42 6.02L77.64 6.02L77.64 9.95Q77.64 10.42 77.76 10.60Q77.88 10.78 78.16 10.78L78.16 10.78Q78.81 10.78 78.81 9.67L78.81 9.67L78.81 6.02ZM88.14 5.88Q88.63 5.88 88.87 6.05L88.87 6.05L88.61 8.68Q88.48 8.58 88.24 8.52Q88.00 8.46 87.72 8.46L87.72 8.46Q87.08 8.46 86.71 8.76Q86.34 9.07 86.34 9.66L86.34 9.66L86.34 13.02L83.12 13.02L83.12 6.02L86.02 6.02L86.09 7.77Q86.59 5.88 88.14 5.88L88.14 5.88ZM94.74 5.88Q95.77 5.88 96.35 6.50Q96.94 7.11 96.94 8.23L96.94 8.23L96.94 13.02L93.72 13.02L93.72 9.07Q93.72 8.61 93.60 8.43Q93.49 8.26 93.23 8.26L93.23 8.26Q92.88 8.26 92.72 8.53Q92.55 8.79 92.55 9.35L92.55 9.35L92.55 13.02L89.33 13.02L89.33 6.02L92.23 6.02L92.30 7.55Q92.61 6.73 93.23 6.31Q93.84 5.88 94.74 5.88L94.74 5.88ZM105.48 11.30Q105.71 11.30 105.83 11.24L105.83 11.24L105.57 12.88Q105.10 13.16 104.54 13.16L104.54 13.16Q103.68 13.16 103.11 12.86Q102.54 12.56 102.34 11.98L102.34 11.98Q102.02 12.53 101.39 12.84Q100.77 13.16 99.85 13.16L99.85 13.16Q98.76 13.16 98.22 12.73Q97.69 12.31 97.69 11.49L97.69 11.49Q97.69 10.61 98.32 10.09Q98.95 9.56 100.42 9.24L100.42 9.24L101.81 8.93L101.81 8.65Q101.81 8.33 101.65 8.15Q101.49 7.97 101.18 7.97L101.18 7.97Q100.84 7.97 100.65 8.15Q100.45 8.34 100.44 8.82L100.44 8.82L97.78 8.41Q97.89 7.21 98.78 6.54Q99.68 5.88 101.36 5.88L101.36 5.88Q103.22 5.88 104.11 6.59Q105.00 7.31 105.00 8.76L105.00 8.76L105.00 10.72Q105.00 11.30 105.48 11.30L105.48 11.30ZM101.21 11.41Q101.47 11.41 101.64 11.23Q101.81 11.06 101.81 10.72L101.81 10.72L101.81 10.05L101.35 10.19Q101.05 10.28 100.88 10.46Q100.72 10.65 100.72 10.92L100.72 10.92Q100.72 11.16 100.86 11.28Q101.00 11.41 101.21 11.41L101.21 11.41ZM109.47 3.22L109.47 10.23Q109.47 10.67 109.59 10.86Q109.72 11.05 110.04 11.05L110.04 11.05Q110.29 11.05 110.54 10.98L110.54 10.98L110.40 12.71Q110.15 12.91 109.65 13.03Q109.14 13.16 108.67 13.16L108.67 13.16Q107.37 13.16 106.81 12.60Q106.25 12.04 106.25 10.72L106.25 10.72L106.25 3.22L109.47 3.22Z"></path></g><!----><g data-v-423bf9ae="" id="1957e9cf-2540-4e60-a431-97f7ceda7166" transform="matrix(1,0,0,1,-4.697998046875,-4)" stroke="none" fill="white"><path d="M10.069 31.5h14.276c2.742 0 4.966-2.258 4.966-5s-2.224-5-4.966-5H10.069c-2.742 0-4.965 2.258-4.965 5s2.223 5 4.965 5zM10.069 54.5h14.276c2.742 0 4.966-2.258 4.966-5s-2.224-5-4.966-5H10.069c-2.742 0-4.965 2.258-4.965 5s2.223 5 4.965 5z"></path><path d="M88.276 4.5H20c-3.428 0-6.5 2.502-6.5 5.931V17.5h10.845c5.134 0 9.311 3.866 9.311 9s-4.176 9-9.311 9H13.5v5h10.845c5.134 0 9.311 3.866 9.311 9s-4.176 9-9.311 9H13.5v4h10.845c5.134 0 9.311 4.365 9.311 9.5s-4.176 9.5-9.311 9.5H13.5v6.518c0 3.428 3.072 6.482 6.5 6.482h68.276c3.429 0 6.224-3.055 6.224-6.482V10.431c0-3.429-2.795-5.931-6.224-5.931z"></path><path d="M29.311 72.5c0-2.742-2.224-5-4.966-5H10.069c-2.742 0-4.965 2.258-4.965 5s2.223 5 4.965 5h14.276c2.742 0 4.966-2.258 4.966-5z"></path></g><!----></svg>